<?xml version="1.0" encoding="UTF-8" standalone="no"?>
<!DOCTYPE svg PUBLIC "-//W3C//DTD SVG 1.1//EN" "http://www.w3.org/Graphics/SVG/1.1/DTD/svg11.dtd">
<svg xmlns="http://www.w3.org/2000/svg" version="1.1" viewBox="0.00 0.00 100.00 100.00">
<path fill="#fbb004" d="
  M 85.90 17.11
  C 86.54 44.15 74.74 68.96 51.18 82.75
  A 2.15 2.13 -45.7 0 1 49.09 82.78
  C 25.47 69.88 13.31 43.63 14.14 17.06
  Q 14.16 16.56 14.65 16.46
  C 24.11 14.52 32.06 11.34 40.62 6.98
  C 47.17 3.64 51.37 2.95 57.93 6.42
  Q 70.96 13.32 85.40 16.51
  Q 85.88 16.62 85.90 17.11
  Z
  M 50.47 78.51
  C 70.76 66.59 81.95 43.41 81.81 20.19
  Q 81.81 19.69 81.33 19.56
  Q 67.35 15.94 54.57 9.24
  C 48.71 6.17 42.57 10.48 35.68 13.94
  Q 30.74 16.42 18.78 19.43
  Q 18.28 19.56 18.28 20.08
  C 18.22 43.43 28.99 66.67 49.60 78.51
  Q 50.04 78.76 50.47 78.51
  Z"
/>
<path fill="#fbb004" d="
  M 46.72 38.55
  C 41.47 34.03 47.38 26.48 53.01 30.06
  C 56.36 32.20 55.73 36.06 53.20 38.75
  Q 52.88 39.08 52.98 39.54
  L 55.22 49.97
  Q 55.34 50.51 54.79 50.51
  L 45.21 50.51
  Q 44.66 50.51 44.78 49.97
  L 47.03 39.48
  Q 47.15 38.92 46.72 38.55
  Z"
/>
<path fill="#fbb004" d="
  M 0.00 47.11
  L 0.00 44.78
  C 2.87 36.08 15.12 40.32 11.08 49.26
  Q 10.88 49.72 11.23 50.08
  C 13.91 52.80 16.40 55.57 19.22 58.11
  Q 20.72 59.47 21.45 61.46
  Q 21.60 61.86 21.18 61.93
  C 18.90 62.31 17.40 62.23 15.71 60.45
  Q 11.79 56.33 7.88 52.25
  Q 7.53 51.89 7.03 51.93
  Q 1.59 52.33 0.00 47.11
  Z
  M 8.04 46.00
  A 2.04 2.04 0.0 0 0 6.00 43.96
  A 2.04 2.04 0.0 0 0 3.96 46.00
  A 2.04 2.04 0.0 0 0 6.00 48.04
  A 2.04 2.04 0.0 0 0 8.04 46.00
  Z"
/>
<path fill="#fbb004" d="
  M 100.00 44.90
  L 100.00 47.22
  Q 98.35 52.28 92.98 51.94
  Q 92.47 51.91 92.12 52.27
  Q 88.34 56.20 84.62 60.15
  C 82.81 62.06 81.26 62.49 78.77 61.89
  Q 78.30 61.78 78.54 61.36
  C 79.19 60.21 79.62 59.25 80.61 58.33
  Q 84.84 54.36 88.73 50.04
  Q 89.06 49.67 88.87 49.22
  C 85.01 39.99 97.43 36.22 100.00 44.90
  Z
  M 96.04 46.00
  A 2.04 2.04 0.0 0 0 94.00 43.96
  A 2.04 2.04 0.0 0 0 91.96 46.00
  A 2.04 2.04 0.0 0 0 94.00 48.04
  A 2.04 2.04 0.0 0 0 96.04 46.00
  Z"
/>
<path fill="#fbb004" d="
  M 13.33 72.58
  C 10.81 78.14 2.80 76.43 2.04 70.76
  C 1.13 64.04 10.36 61.33 13.47 67.54
  A 0.84 0.83 -13.1 0 0 14.22 68.00
  L 25.45 68.00
  A 1.04 1.03 69.9 0 1 26.24 68.37
  L 28.79 71.43
  Q 29.26 72.00 28.52 72.00
  L 14.23 72.00
  A 0.99 0.98 12.0 0 0 13.33 72.58
  Z
  M 10.04 70.00
  A 2.04 2.04 0.0 0 0 8.00 67.96
  A 2.04 2.04 0.0 0 0 5.96 70.00
  A 2.04 2.04 0.0 0 0 8.00 72.04
  A 2.04 2.04 0.0 0 0 10.04 70.00
  Z"
/>
<path fill="#fbb004" d="
  M 86.57 67.50
  C 88.86 62.85 95.17 62.99 97.36 67.21
  C 100.92 74.03 90.80 79.98 86.41 72.39
  Q 86.19 72.00 85.74 72.00
  L 71.48 72.00
  Q 70.75 72.00 71.22 71.43
  L 73.73 68.39
  Q 74.05 68.00 74.56 68.00
  L 85.77 68.00
  Q 86.33 68.00 86.57 67.50
  Z
  M 94.04 70.00
  A 2.04 2.04 0.0 0 0 92.00 67.96
  A 2.04 2.04 0.0 0 0 89.96 70.00
  A 2.04 2.04 0.0 0 0 92.00 72.04
  A 2.04 2.04 0.0 0 0 94.04 70.00
  Z"
/>
<path fill="#fbb004" d="
  M 19.08 88.86
  C 20.57 92.02 20.10 95.73 16.79 97.29
  C 7.38 101.71 3.93 85.36 14.99 86.07
  Q 15.53 86.10 15.91 85.71
  L 24.84 76.38
  A 1.18 1.18 0.0 0 1 25.70 76.01
  L 32.47 76.00
  A 1.32 1.31 -24.5 0 1 33.33 76.32
  L 36.73 79.34
  Q 37.46 79.99 36.49 79.99
  L 27.24 80.00
  Q 26.82 80.00 26.53 80.31
  L 19.23 87.96
  Q 18.85 88.36 19.08 88.86
  Z
  M 16.04 92.00
  A 2.04 2.04 0.0 0 0 14.00 89.96
  A 2.04 2.04 0.0 0 0 11.96 92.00
  A 2.04 2.04 0.0 0 0 14.00 94.04
  A 2.04 2.04 0.0 0 0 16.04 92.00
  Z"
/>
<path fill="#fbb004" d="
  M 80.69 87.87
  L 73.54 80.37
  Q 73.19 80.00 72.69 80.00
  L 63.32 79.99
  Q 62.53 79.99 63.12 79.47
  L 66.68 76.31
  A 1.27 1.24 -64.9 0 1 67.54 75.99
  L 74.29 76.03
  Q 74.83 76.03 75.21 76.43
  L 84.22 85.82
  Q 84.60 86.22 85.14 86.16
  Q 90.47 85.65 91.76 90.23
  C 94.67 100.50 76.07 100.68 80.87 88.83
  Q 81.09 88.29 80.69 87.87
  Z
  M 88.04 92.00
  A 2.04 2.04 0.0 0 0 86.00 89.96
  A 2.04 2.04 0.0 0 0 83.96 92.00
  A 2.04 2.04 0.0 0 0 86.00 94.04
  A 2.04 2.04 0.0 0 0 88.04 92.00
  Z"
/>
</svg>
