<?xml version="1.0" encoding="UTF-8" standalone="no"?>
<!DOCTYPE svg PUBLIC "-//W3C//DTD SVG 1.1//EN" "http://www.w3.org/Graphics/SVG/1.1/DTD/svg11.dtd">
<svg xmlns="http://www.w3.org/2000/svg" version="1.1" viewBox="0.00 0.00 60.00 60.00">
<path fill="#fbb003" d="
  M 28.61 0.00
  L 31.32 0.00
  C 44.08 3.14 49.17 19.17 47.62 30.69
  Q 47.55 31.21 48.07 31.25
  Q 51.41 31.48 51.13 34.37
  Q 50.05 45.90 48.98 57.44
  Q 48.94 57.96 49.46 57.99
  C 52.33 58.16 58.07 57.68 57.57 53.30
  Q 56.87 47.25 53.95 41.86
  Q 53.67 41.34 54.09 40.93
  L 54.45 40.57
  Q 55.04 39.99 55.46 40.71
  C 58.94 46.59 63.88 59.11 52.04 60.00
  L 13.25 60.00
  Q 10.93 59.15 10.75 55.99
  Q 10.47 50.93 9.01 38.04
  Q 8.95 37.46 8.60 37.93
  C 6.14 41.21 -2.88 57.31 6.86 57.72
  A 0.59 0.59 0.0 0 1 7.43 58.33
  L 7.40 59.04
  Q 7.37 59.81 6.61 59.69
  C -5.48 57.84 3.36 41.46 7.37 36.24
  C 9.68 33.23 9.03 29.88 14.70 31.40
  A 0.84 0.84 0.0 0 1 14.52 33.05
  L 11.19 33.20
  A 0.56 0.56 0.0 0 0 10.66 33.81
  L 12.84 57.21
  A 0.87 0.86 87.5 0 0 13.70 58.00
  L 45.86 58.00
  Q 46.97 58.00 47.07 56.89
  L 49.19 34.07
  A 0.87 0.87 0.0 0 0 48.32 33.12
  L 20.12 33.13
  Q 19.59 33.13 19.25 32.72
  C 15.79 28.54 16.24 22.52 16.41 17.59
  A 2.06 2.04 78.0 0 1 17.53 15.84
  Q 31.13 8.93 44.04 16.90
  Q 44.38 17.10 44.28 16.72
  C 42.64 10.37 36.80 1.43 29.24 2.06
  C 18.96 2.92 14.06 18.11 14.02 26.69
  A 0.56 0.56 0.0 0 1 13.45 27.25
  L 12.55 27.25
  Q 12.05 27.25 12.05 26.75
  C 11.98 16.31 17.25 2.63 28.61 0.00
  Z
  M 42.17 22.89
  L 42.80 22.77
  A 0.59 0.59 0.0 0 1 43.49 23.29
  Q 43.87 27.16 42.14 30.60
  Q 41.83 31.20 42.51 31.20
  L 44.78 31.20
  Q 45.33 31.20 45.46 30.66
  C 46.27 27.24 46.82 22.18 43.86 19.54
  C 37.19 13.57 26.58 13.24 18.94 17.37
  Q 18.48 17.62 18.44 18.14
  Q 18.03 23.06 18.83 27.74
  Q 19.42 31.19 22.92 31.19
  L 39.01 31.20
  A 0.97 0.96 15.3 0 0 39.84 30.73
  Q 41.81 27.44 41.63 23.57
  A 0.66 0.65 83.6 0 1 42.17 22.89
  Z"
/>
<path fill="#fbb003" d="
  M 28.65 19.45
  L 28.06 21.05
  A 0.91 0.91 0.0 0 1 26.29 20.69
  C 26.59 14.89 35.35 16.17 33.34 22.37
  A 1.53 1.52 82.9 0 1 32.68 23.22
  Q 31.22 24.12 30.83 25.77
  A 0.90 0.90 0.0 0 1 29.06 25.60
  Q 29.00 24.45 29.59 23.45
  Q 29.83 23.04 30.21 22.76
  Q 31.34 21.92 31.64 20.91
  A 1.77 1.55 67.1 0 0 28.65 19.45
  Z"
/>
<ellipse fill="#fbb003" cx="0.00" cy="0.00" transform="translate(29.98,28.51) rotate(-11.9)" rx="0.97" ry="0.88"/>
<path fill="#fbb003" d="
  M 32.90 50.84
  Q 29.96 53.73 27.03 50.80
  Q 26.62 50.39 26.20 50.80
  L 24.61 52.36
  Q 24.13 52.84 23.62 52.39
  L 23.26 52.07
  A 0.71 0.70 43.1 0 1 23.22 51.04
  L 24.89 49.35
  Q 25.35 48.89 25.02 48.32
  Q 23.42 45.55 24.68 42.63
  Q 24.89 42.15 24.57 41.74
  L 23.09 39.81
  A 0.66 0.66 0.0 0 1 23.68 38.75
  Q 25.11 38.90 25.86 40.17
  Q 26.15 40.65 26.63 40.34
  Q 29.85 38.25 33.18 40.22
  Q 33.65 40.50 34.06 40.14
  L 35.43 38.92
  A 0.93 0.93 0.0 0 1 36.72 40.27
  L 35.37 41.64
  Q 34.98 42.03 35.22 42.53
  Q 36.64 45.55 34.89 48.40
  Q 34.61 48.87 35.00 49.26
  L 36.68 50.91
  A 0.78 0.77 -47.8 0 1 36.73 51.96
  L 36.43 52.32
  Q 35.93 52.91 35.38 52.37
  L 33.83 50.84
  Q 33.37 50.38 32.90 50.84
  Z
  M 28.97 49.85
  A 1.44 1.43 -48.2 0 0 31.19 49.72
  C 32.88 47.41 36.11 44.54 32.28 42.02
  C 28.43 39.47 23.95 44.14 27.13 47.79
  Q 27.92 48.70 28.97 49.85
  Z"
/>
</svg>
