<?xml version="1.0" encoding="UTF-8" standalone="no"?>
<!DOCTYPE svg PUBLIC "-//W3C//DTD SVG 1.1//EN" "http://www.w3.org/Graphics/SVG/1.1/DTD/svg11.dtd">
<svg xmlns="http://www.w3.org/2000/svg" version="1.1" viewBox="0.00 0.00 512.00 512.00">
<g stroke-width="2.00" fill="none" stroke-linecap="butt">
<path stroke="#785e2f" vector-effect="non-scaling-stroke" d="
  M 416.33 151.61
  Q 432.77 137.92 431.81 118.10
  C 430.22 85.48 392.05 68.12 366.70 89.09
  C 347.01 105.39 347.01 134.93 367.54 151.32
  A 1.24 1.21 19.8 0 1 368.00 152.27
  L 368.02 183.26
  A 0.74 0.74 0.0 0 0 368.76 184.00
  L 414.97 184.00
  A 0.98 0.98 0.0 0 0 415.95 183.02
  L 415.98 152.35
  A 0.97 0.96 -20.1 0 1 416.33 151.61"
/>
<path stroke="#785e2f" vector-effect="non-scaling-stroke" d="
  M 359.92 280.08
  L 280.03 280.04"
/>
<path stroke="#785e2f" vector-effect="non-scaling-stroke" d="
  M 359.97 295.96
  L 280.02 295.98"
/>
<path stroke="#785e2f" vector-effect="non-scaling-stroke" d="
  M 359.95 312.06
  L 280.02 312.03"
/>
<path stroke="#785e2f" vector-effect="non-scaling-stroke" d="
  M 359.97 327.96
  L 280.02 327.98"
/>
<path stroke="#785e2f" vector-effect="non-scaling-stroke" d="
  M 359.97 344.05
  L 280.02 344.02"
/>
<path stroke="#785e2f" vector-effect="non-scaling-stroke" d="
  M 359.97 359.91
  L 344.60 360.03
  Q 344.04 360.03 344.04 360.60
  L 343.94 375.96"
/>
<path stroke="#785e2f" vector-effect="non-scaling-stroke" d="
  M 328.03 375.97
  L 327.95 360.61
  Q 327.95 360.05 327.39 360.05
  L 280.03 360.03"
/>
</g>
<path fill="#000000" d="
  M 200.00 104.50
  L 200.01 119.38
  Q 200.01 120.00 200.63 120.00
  L 215.50 120.00
  Q 216.00 120.00 216.00 120.50
  L 216.00 135.49
  Q 216.00 136.01 215.48 136.01
  C 208.93 135.96 200.02 136.85 194.63 134.98
  C 181.24 130.32 184.04 115.52 183.99 104.75
  A 0.75 0.75 0.0 0 0 183.24 104.00
  L 127.95 104.00
  Q 127.45 104.00 127.18 104.42
  Q 109.74 131.94 78.72 135.52
  C 40.77 139.89 7.57 109.11 8.01 71.47
  C 8.52 27.73 51.82 -3.03 93.31 11.76
  Q 114.72 19.39 127.11 39.54
  Q 127.39 40.00 127.93 40.00
  Q 191.86 39.99 255.73 40.01
  Q 257.96 40.01 259.95 41.02
  Q 269.79 45.97 279.52 50.80
  A 0.34 0.33 12.9 0 0 280.00 50.50
  L 280.00 32.74
  A 0.76 0.75 -0.0 0 1 280.76 31.99
  C 295.70 32.04 312.26 32.68 325.98 31.21
  C 350.10 28.64 371.11 20.07 391.49 6.85
  A 0.85 0.84 -44.5 0 1 392.40 6.85
  Q 402.10 12.87 406.84 15.40
  Q 437.68 31.81 472.75 31.93
  Q 488.24 31.99 503.51 32.03
  A 0.51 0.51 0.0 0 1 504.02 32.54
  Q 504.00 74.01 503.88 115.50
  C 503.70 172.52 473.67 223.00 424.43 250.75
  A 0.84 0.83 -14.7 0 0 424.00 251.48
  L 424.00 423.25
  A 0.75 0.74 -0.0 0 0 424.75 423.99
  L 439.47 424.00
  Q 439.95 424.01 439.95 424.49
  Q 440.12 456.11 439.98 464.74
  C 439.69 482.38 427.51 497.96 410.54 502.48
  Q 404.77 504.01 390.83 504.01
  Q 224.66 503.99 58.50 504.01
  Q 43.69 504.01 38.59 502.82
  C 24.15 499.47 12.10 487.39 8.95 472.66
  Q 8.02 468.33 8.00 457.28
  Q 7.98 441.13 8.02 425.19
  A 1.20 1.19 -0.2 0 1 9.21 424.00
  L 23.41 423.99
  A 0.59 0.59 0.0 0 0 24.00 423.40
  Q 24.00 306.68 24.00 190.01
  Q 24.00 185.67 25.72 180.32
  C 29.98 166.96 40.38 156.96 53.75 153.44
  Q 59.24 151.99 70.88 151.99
  Q 177.44 152.01 283.89 152.00
  A 0.41 0.40 83.2 0 0 284.28 151.50
  Q 282.27 142.77 281.16 133.89
  C 279.58 121.27 279.91 106.93 280.02 93.53
  A 0.36 0.36 0.0 0 0 279.50 93.21
  L 264.46 100.71
  A 0.81 0.80 -13.0 0 0 264.02 101.41
  Q 263.96 109.32 263.98 117.21
  C 263.99 125.54 261.45 132.16 253.38 134.97
  C 248.00 136.85 239.06 135.97 232.52 136.01
  Q 232.00 136.01 232.00 135.49
  L 232.01 120.62
  Q 232.01 120.00 232.63 120.00
  L 247.38 120.00
  Q 248.00 120.00 248.00 119.37
  L 248.00 104.63
  Q 248.00 104.00 247.37 104.00
  L 200.50 104.00
  Q 200.00 104.00 200.00 104.50
  Z
  M 117.16 55.43
  C 110.76 39.81 98.23 28.55 81.72 25.08
  C 47.92 17.97 18.21 48.00 24.98 81.73
  C 30.41 108.83 58.26 125.49 84.58 118.17
  Q 107.32 111.85 117.21 88.49
  Q 117.41 88.03 117.92 88.02
  Q 184.66 87.94 251.44 88.03
  Q 253.77 88.04 255.87 87.03
  Q 267.79 81.32 279.55 75.24
  Q 280.00 75.00 280.00 74.49
  L 280.00 69.50
  Q 280.00 68.96 279.51 68.71
  Q 267.81 62.79 256.01 56.95
  Q 254.01 55.96 251.77 55.96
  Q 184.86 56.09 117.96 55.96
  A 0.87 0.86 -11.1 0 1 117.16 55.43
  Z
  M 463.26 47.51
  C 438.06 46.06 414.20 38.67 392.56 25.66
  A 1.09 1.07 -43.9 0 0 391.46 25.65
  Q 354.80 47.57 311.75 47.88
  Q 304.19 47.94 296.50 48.05
  Q 296.00 48.05 296.00 48.56
  Q 295.99 81.78 296.05 115.00
  C 296.15 175.96 333.86 227.83 391.43 247.42
  Q 391.89 247.58 392.34 247.42
  C 449.94 228.24 487.34 176.55 487.76 115.75
  Q 488.00 82.07 488.04 48.74
  A 0.76 0.75 89.3 0 0 487.27 47.98
  Q 475.26 48.20 463.26 47.51
  Z
  M 392.10 391.25
  C 392.12 397.89 388.39 404.08 382.39 406.65
  Q 379.23 408.00 371.91 408.00
  Q 223.73 408.00 75.54 408.00
  C 67.24 408.00 60.75 406.19 57.48 398.52
  Q 55.99 395.02 55.99 386.79
  Q 56.00 294.75 56.01 202.71
  C 56.01 194.93 58.15 188.65 65.29 185.55
  Q 68.90 183.98 78.42 183.98
  Q 186.80 184.03 295.22 183.99
  Q 295.86 183.99 295.61 183.40
  L 289.25 168.39
  A 0.63 0.63 0.0 0 0 288.67 168.00
  Q 178.40 168.00 68.14 167.99
  Q 60.61 167.99 56.52 169.33
  Q 45.08 173.08 41.44 184.25
  Q 39.97 188.76 39.97 198.91
  Q 40.03 310.79 39.99 422.77
  Q 39.99 424.00 41.22 424.00
  L 407.25 424.00
  A 0.75 0.75 0.0 0 0 408.00 423.25
  L 408.00 259.28
  A 0.32 0.31 80.3 0 0 407.58 258.98
  L 392.44 264.37
  Q 391.99 264.52 391.99 264.99
  Q 391.98 328.13 392.10 391.25
  Z
  M 375.71 258.56
  Q 331.75 240.09 305.35 200.45
  A 1.01 1.01 0.0 0 0 304.51 200.00
  L 72.50 200.00
  Q 72.00 200.00 72.00 200.50
  L 72.00 391.25
  A 0.75 0.75 0.0 0 0 72.75 392.00
  L 375.50 392.00
  A 0.50 0.50 0.0 0 0 376.00 391.50
  L 376.00 258.99
  A 0.47 0.46 11.4 0 0 375.71 258.56
  Z
  M 279.82 440.72
  C 281.17 453.67 276.93 466.19 264.19 470.57
  Q 260.11 471.97 251.95 471.98
  Q 224.72 472.00 197.47 472.01
  Q 188.42 472.02 184.17 470.58
  Q 173.85 467.10 169.64 456.56
  C 167.72 451.75 167.78 446.07 168.05 440.82
  A 0.77 0.77 0.0 0 0 167.27 440.00
  L 24.52 440.00
  Q 24.04 440.00 24.03 440.48
  Q 23.93 450.69 23.99 460.92
  Q 24.04 467.94 25.45 471.93
  Q 29.35 482.95 40.49 486.70
  Q 44.39 488.01 51.35 488.01
  Q 222.01 487.98 392.67 488.02
  Q 403.08 488.02 407.68 486.55
  Q 419.35 482.80 422.87 470.76
  Q 424.12 466.49 424.03 457.59
  Q 423.93 449.08 424.03 440.80
  A 0.79 0.79 0.0 0 0 423.24 440.00
  L 280.47 440.00
  Q 279.75 440.00 279.82 440.72
  Z
  M 263.44 439.99
  L 184.56 439.99
  A 0.62 0.62 0.0 0 0 183.94 440.61
  L 183.94 447.51
  A 8.90 8.54 0.0 0 0 192.84 456.05
  L 255.16 456.05
  A 8.90 8.54 -0.0 0 0 264.06 447.51
  L 264.06 440.61
  A 0.62 0.62 0.0 0 0 263.44 439.99
  Z"
/>
<path fill="#f0bc5e" d="
  M 386.44 228.33
  C 340.95 208.54 312.46 165.35 312.07 115.75
  Q 311.87 90.22 312.05 64.68
  Q 312.06 64.07 312.67 64.06
  Q 354.54 63.46 391.49 44.07
  A 1.20 1.18 44.5 0 1 392.58 44.07
  Q 429.57 63.44 471.48 64.05
  A 0.50 0.50 0.0 0 1 471.97 64.55
  Q 472.06 87.25 471.97 110.00
  Q 471.91 123.17 471.11 129.96
  C 465.67 175.83 435.54 213.96 392.33 230.47
  Q 391.86 230.65 391.40 230.46
  Q 389.74 229.77 386.44 228.33
  Z
  M 416.33 151.61
  Q 432.77 137.92 431.81 118.10
  C 430.22 85.48 392.05 68.12 366.70 89.09
  C 347.01 105.39 347.01 134.93 367.54 151.32
  A 1.24 1.21 19.8 0 1 368.00 152.27
  L 368.02 183.26
  A 0.74 0.74 0.0 0 0 368.76 184.00
  L 414.97 184.00
  A 0.98 0.98 0.0 0 0 415.95 183.02
  L 415.98 152.35
  A 0.97 0.96 -20.1 0 1 416.33 151.61
  Z"
/>
<path fill="#000000" d="
  M 87.98 71.99
  A 23.98 23.98 0.0 0 1 64.00 95.97
  A 23.98 23.98 0.0 0 1 40.02 71.99
  A 23.98 23.98 0.0 0 1 64.00 48.01
  A 23.98 23.98 0.0 0 1 87.98 71.99
  Z
  M 71.97 72.00
  A 7.97 7.97 0.0 0 0 64.00 64.03
  A 7.97 7.97 0.0 0 0 56.03 72.00
  A 7.97 7.97 0.0 0 0 64.00 79.97
  A 7.97 7.97 0.0 0 0 71.97 72.00
  Z"
/>
<path fill="#000000" d="
  M 415.98 152.35
  L 415.95 183.02
  A 0.98 0.98 0.0 0 1 414.97 184.00
  L 368.76 184.00
  A 0.74 0.74 0.0 0 1 368.02 183.26
  L 368.00 152.27
  A 1.24 1.21 19.8 0 0 367.54 151.32
  C 347.01 134.93 347.01 105.39 366.70 89.09
  C 392.05 68.12 430.22 85.48 431.81 118.10
  Q 432.77 137.92 416.33 151.61
  A 0.97 0.96 -20.1 0 0 415.98 152.35
  Z
  M 400.65 142.46
  C 414.02 136.24 419.97 122.06 413.17 108.80
  C 401.87 86.74 368.38 95.09 368.03 119.85
  C 367.88 130.24 374.09 137.85 383.41 142.51
  A 1.06 1.06 0.0 0 1 384.00 143.46
  L 384.00 167.00
  A 1.00 1.00 0.0 0 0 385.00 168.00
  L 399.00 168.00
  A 1.01 1.00 -0.3 0 0 400.00 167.00
  L 400.00 143.47
  A 1.12 1.11 -12.5 0 1 400.65 142.46
  Z"
/>
<rect fill="#000000" x="-8.00" y="-8.00" transform="translate(96.00,224.01) rotate(0.1)" width="16.00" height="16.00" rx="0.55"/>
<path fill="#000000" d="
  M 143.69 299.37
  C 127.73 284.12 123.12 260.84 133.53 241.63
  C 155.11 201.79 214.97 210.46 223.06 255.43
  Q 227.56 280.39 208.48 299.28
  Q 208.15 299.61 208.58 299.78
  Q 260.29 319.72 265.00 375.47
  Q 265.04 376.00 264.51 376.00
  L 87.54 376.00
  Q 87.17 376.00 87.19 375.62
  C 89.36 339.95 109.38 311.98 143.53 300.09
  Q 144.21 299.86 143.69 299.37
  Z
  M 207.97 263.99
  A 31.97 31.97 0.0 0 0 176.00 232.02
  A 31.97 31.97 0.0 0 0 144.03 263.99
  A 31.97 31.97 0.0 0 0 176.00 295.96
  A 31.97 31.97 0.0 0 0 207.97 263.99
  Z
  M 155.19 313.46
  C 132.11 318.59 112.17 335.64 105.90 359.52
  Q 105.77 360.00 106.26 360.00
  L 245.77 360.00
  A 0.42 0.42 0.0 0 0 246.17 359.46
  C 237.80 331.46 213.20 312.31 183.75 311.99
  C 174.30 311.88 163.92 311.52 155.19 313.46
  Z"
/>
<rect fill="#000000" x="-8.00" y="-8.00" transform="translate(96.00,256.00) rotate(0.1)" width="16.00" height="16.00" rx="0.42"/>
<path fill="#000000" d="
  M 359.92 280.08
  L 280.03 280.04
  L 280.05 264.72
  A 0.72 0.72 0.0 0 1 280.77 264.00
  L 359.29 264.00
  Q 359.94 264.00 359.94 264.64
  L 359.92 280.08
  Z"
/>
<rect fill="#000000" x="-8.00" y="-8.00" transform="translate(96.00,288.00) rotate(-0.1)" width="16.00" height="16.00" rx="0.43"/>
<path fill="#f0bc5e" d="
  M 280.03 280.04
  L 359.92 280.08
  L 359.97 295.96
  L 280.02 295.98
  L 280.03 280.04
  Z"
/>
<path fill="#000000" d="
  M 359.97 295.96
  L 359.95 312.06
  L 280.02 312.03
  L 280.02 295.98
  L 359.97 295.96
  Z"
/>
<path fill="#f0bc5e" d="
  M 280.02 312.03
  L 359.95 312.06
  L 359.97 327.96
  L 280.02 327.98
  L 280.02 312.03
  Z"
/>
<path fill="#000000" d="
  M 359.97 327.96
  L 359.97 344.05
  L 280.02 344.02
  L 280.02 327.98
  L 359.97 327.96
  Z"
/>
<path fill="#f0bc5e" d="
  M 280.02 344.02
  L 359.97 344.05
  L 359.97 359.91
  L 344.60 360.03
  Q 344.04 360.03 344.04 360.60
  L 343.94 375.96
  L 328.03 375.97
  L 327.95 360.61
  Q 327.95 360.05 327.39 360.05
  L 280.03 360.03
  L 280.02 344.02
  Z"
/>
<path fill="#000000" d="
  M 359.97 359.91
  L 359.96 375.43
  Q 359.96 375.96 359.43 375.96
  L 343.94 375.96
  L 344.04 360.60
  Q 344.04 360.03 344.60 360.03
  L 359.97 359.91
  Z"
/>
<path fill="#000000" d="
  M 280.03 360.03
  L 327.39 360.05
  Q 327.95 360.05 327.95 360.61
  L 328.03 375.97
  L 280.57 375.96
  Q 280.03 375.96 280.03 375.43
  L 280.03 360.03
  Z"
/>
</svg>
